<svg width="84" height="84" viewBox="0 0 84 84" fill="none" xmlns="http://www.w3.org/2000/svg">
<g clip-path="url(#clip0_3_62)">
<path d="M42 0C65.1949 0 84 18.8051 84 42C84 65.1949 65.1941 84 42 84C18.8059 84 0 65.2 0 42C0 18.8 18.8026 0 42 0Z" fill="#53AE94"/>
<path d="M47.1836 36.4039V30.156H61.4712V20.6363H22.5658V30.156H36.855V36.3989C25.242 36.9323 16.5102 39.2322 16.5102 41.9874C16.5102 44.7426 25.2462 47.0425 36.855 47.5793V67.5923H47.187V47.5776C58.779 47.0425 67.4932 44.7443 67.4932 41.9916C67.4932 39.2389 58.779 36.9407 47.187 36.4056M47.187 45.8825V45.8775C46.8955 45.8959 45.3978 45.9858 42.063 45.9858C39.3968 45.9858 37.5211 45.9102 36.86 45.8758V45.8842C26.6003 45.4297 18.942 43.6431 18.942 41.5053C18.942 39.3675 26.6011 37.5833 36.86 37.128V44.1042C37.532 44.1504 39.454 44.2638 42.1067 44.2638C45.2928 44.2638 46.8947 44.1311 47.1887 44.1042V37.128C57.4283 37.5841 65.0689 39.3725 65.0689 41.5027C65.0689 43.633 57.4249 45.4222 47.1887 45.8783" fill="white"/>
</g>
<defs>
<clipPath id="clip0_3_62">
<rect width="84" height="84" fill="white"/>
</clipPath>
</defs>
</svg>
